<svg xmlns="http://www.w3.org/2000/svg" xmlns:xlink="http://www.w3.org/1999/xlink" width="500" zoomAndPan="magnify" viewBox="0 0 375 374.999991" height="500" preserveAspectRatio="xMidYMid meet" version="1.0"><defs><g/><clipPath id="07e65f73eb"><path d="M 97.207031 96.585938 L 278 96.585938 L 278 291 L 97.207031 291 Z M 97.207031 96.585938 " clip-rule="nonzero"/></clipPath><clipPath id="4faa768d6a"><path d="M 187.5 96.585938 C 137.632812 96.585938 97.207031 140 97.207031 193.558594 C 97.207031 247.117188 137.632812 290.535156 187.5 290.535156 C 237.367188 290.535156 277.792969 247.117188 277.792969 193.558594 C 277.792969 140 237.367188 96.585938 187.5 96.585938 " clip-rule="nonzero"/></clipPath><clipPath id="d9fe2d26a1"><path d="M 99 77 L 189 77 L 189 204 L 99 204 Z M 99 77 " clip-rule="nonzero"/></clipPath><clipPath id="48061c0972"><path d="M 97.210938 79.167969 L 253.746094 37.453125 L 302.992188 222.253906 L 146.457031 263.96875 Z M 97.210938 79.167969 " clip-rule="nonzero"/></clipPath><clipPath id="36b087711d"><path d="M 97.210938 79.167969 L 253.746094 37.453125 L 302.992188 222.253906 L 146.457031 263.96875 Z M 97.210938 79.167969 " clip-rule="nonzero"/></clipPath><clipPath id="4e461da58c"><path d="M 164 144 L 244 144 L 244 239 L 164 239 Z M 164 144 " clip-rule="nonzero"/></clipPath><clipPath id="236d758ec9"><path d="M 97.210938 79.167969 L 253.746094 37.453125 L 302.992188 222.253906 L 146.457031 263.96875 Z M 97.210938 79.167969 " clip-rule="nonzero"/></clipPath><clipPath id="48f43cd59f"><path d="M 97.210938 79.167969 L 253.746094 37.453125 L 302.992188 222.253906 L 146.457031 263.96875 Z M 97.210938 79.167969 " clip-rule="nonzero"/></clipPath><clipPath id="1b0aad0d95"><path d="M 221 100 L 270 100 L 270 159 L 221 159 Z M 221 100 " clip-rule="nonzero"/></clipPath><clipPath id="e294788955"><path d="M 97.210938 79.167969 L 253.746094 37.453125 L 302.992188 222.253906 L 146.457031 263.96875 Z M 97.210938 79.167969 " clip-rule="nonzero"/></clipPath><clipPath id="940a1d6ef0"><path d="M 97.210938 79.167969 L 253.746094 37.453125 L 302.992188 222.253906 L 146.457031 263.96875 Z M 97.210938 79.167969 " clip-rule="nonzero"/></clipPath><clipPath id="da3255c2ca"><path d="M 166 151 L 239 151 L 239 237 L 166 237 Z M 166 151 " clip-rule="nonzero"/></clipPath><clipPath id="be59ea3791"><path d="M 97.210938 79.167969 L 253.746094 37.453125 L 302.992188 222.253906 L 146.457031 263.96875 Z M 97.210938 79.167969 " clip-rule="nonzero"/></clipPath><clipPath id="25429d0885"><path d="M 97.210938 79.167969 L 253.746094 37.453125 L 302.992188 222.253906 L 146.457031 263.96875 Z M 97.210938 79.167969 " clip-rule="nonzero"/></clipPath><clipPath id="9825733902"><path d="M 213 158 L 226 158 L 226 171 L 213 171 Z M 213 158 " clip-rule="nonzero"/></clipPath><clipPath id="2f5641c1e2"><path d="M 97.210938 79.167969 L 253.746094 37.453125 L 302.992188 222.253906 L 146.457031 263.96875 Z M 97.210938 79.167969 " clip-rule="nonzero"/></clipPath><clipPath id="905d9a08ec"><path d="M 97.210938 79.167969 L 253.746094 37.453125 L 302.992188 222.253906 L 146.457031 263.96875 Z M 97.210938 79.167969 " clip-rule="nonzero"/></clipPath><clipPath id="ac1ddd088e"><path d="M 188 136 L 251 136 L 251 176 L 188 176 Z M 188 136 " clip-rule="nonzero"/></clipPath><clipPath id="0da8ed601f"><path d="M 97.210938 79.167969 L 253.746094 37.453125 L 302.992188 222.253906 L 146.457031 263.96875 Z M 97.210938 79.167969 " clip-rule="nonzero"/></clipPath><clipPath id="19b0302300"><path d="M 97.210938 79.167969 L 253.746094 37.453125 L 302.992188 222.253906 L 146.457031 263.96875 Z M 97.210938 79.167969 " clip-rule="nonzero"/></clipPath><clipPath id="501a5c2c4f"><path d="M 196 131 L 248 131 L 248 167 L 196 167 Z M 196 131 " clip-rule="nonzero"/></clipPath><clipPath id="02cf6daba3"><path d="M 97.210938 79.167969 L 253.746094 37.453125 L 302.992188 222.253906 L 146.457031 263.96875 Z M 97.210938 79.167969 " clip-rule="nonzero"/></clipPath><clipPath id="98b9f992bd"><path d="M 97.210938 79.167969 L 253.746094 37.453125 L 302.992188 222.253906 L 146.457031 263.96875 Z M 97.210938 79.167969 " clip-rule="nonzero"/></clipPath><clipPath id="5d76d5ef62"><path d="M 158 81 L 188 81 L 188 129 L 158 129 Z M 158 81 " clip-rule="nonzero"/></clipPath><clipPath id="9f3cafbf25"><path d="M 97.210938 79.167969 L 253.746094 37.453125 L 302.992188 222.253906 L 146.457031 263.96875 Z M 97.210938 79.167969 " clip-rule="nonzero"/></clipPath><clipPath id="c96064f793"><path d="M 97.210938 79.167969 L 253.746094 37.453125 L 302.992188 222.253906 L 146.457031 263.96875 Z M 97.210938 79.167969 " clip-rule="nonzero"/></clipPath><clipPath id="50152f4862"><path d="M 186 71 L 205 71 L 205 134 L 186 134 Z M 186 71 " clip-rule="nonzero"/></clipPath><clipPath id="3748f8ae8b"><path d="M 97.210938 79.167969 L 253.746094 37.453125 L 302.992188 222.253906 L 146.457031 263.96875 Z M 97.210938 79.167969 " clip-rule="nonzero"/></clipPath><clipPath id="5002dd98b6"><path d="M 97.210938 79.167969 L 253.746094 37.453125 L 302.992188 222.253906 L 146.457031 263.96875 Z M 97.210938 79.167969 " clip-rule="nonzero"/></clipPath><clipPath id="6242d4249c"><path d="M 192 108 L 222 108 L 222 134 L 192 134 Z M 192 108 " clip-rule="nonzero"/></clipPath><clipPath id="d8bd76e326"><path d="M 97.210938 79.167969 L 253.746094 37.453125 L 302.992188 222.253906 L 146.457031 263.96875 Z M 97.210938 79.167969 " clip-rule="nonzero"/></clipPath><clipPath id="bdd4543a54"><path d="M 97.210938 79.167969 L 253.746094 37.453125 L 302.992188 222.253906 L 146.457031 263.96875 Z M 97.210938 79.167969 " clip-rule="nonzero"/></clipPath></defs><rect x="-37.5" width="450" fill="#ffffff" y="-37.499999" height="449.999989" fill-opacity="1"/><rect x="-37.5" width="450" fill="#ffffff" y="-37.499999" height="449.999989" fill-opacity="1"/><rect x="-37.5" width="450" fill="#ffffff" y="-37.499999" height="449.999989" fill-opacity="1"/><g clip-path="url(#07e65f73eb)"><g clip-path="url(#4faa768d6a)"><path fill="#ffe4e4" d="M 97.207031 96.585938 L 277.621094 96.585938 L 277.621094 290.492188 L 97.207031 290.492188 Z M 97.207031 96.585938 " fill-opacity="1" fill-rule="nonzero"/></g></g><g clip-path="url(#d9fe2d26a1)"><g clip-path="url(#48061c0972)"><g clip-path="url(#36b087711d)"><path fill="#db3b3b" d="M 166.5625 203.191406 L 168.144531 199.125 C 162.230469 192.378906 152.160156 179.675781 145.542969 170.777344 C 141.988281 165.996094 139.433594 162.300781 139.027344 161.203125 C 138.96875 161.042969 139.050781 160.867188 139.210938 160.808594 C 139.371094 160.75 139.546875 160.828125 139.605469 160.984375 C 140.003906 162.066406 142.539062 165.699219 146.039062 170.410156 C 152.570312 179.191406 162.472656 191.695312 168.394531 198.476562 L 176.171875 178.476562 C 175.769531 178.480469 175.351562 178.457031 174.914062 178.410156 C 174.59375 178.371094 174.304688 178.210938 174.109375 177.964844 L 149.714844 147.320312 C 150.039062 146.464844 150.417969 145.613281 150.863281 144.796875 L 175.730469 176.035156 C 176.238281 176.0625 176.710938 176.042969 177.144531 175.972656 L 178.910156 171.441406 L 154.203125 140.800781 C 152.941406 141.75 151.820312 143.066406 150.847656 144.773438 L 146.960938 139.890625 C 148.449219 139.058594 149.949219 138.21875 151.441406 137.378906 L 154.203125 140.800781 C 154.886719 140.3125 155.699219 139.910156 156.527344 139.746094 L 153.625 136.152344 C 161.882812 131.507812 169.898438 126.921875 175.730469 123.269531 C 176.167969 124.25 176.839844 125.769531 177.691406 127.703125 C 171.605469 129.636719 167.738281 132.507812 166.0625 140.171875 C 162.371094 138.742188 159.125 138.484375 156.382812 139.570312 L 179.941406 168.785156 L 188.546875 146.652344 C 183.570312 134.910156 179.148438 124.882812 177.820312 121.886719 C 179.351562 120.707031 180.164062 119.449219 180.515625 118.273438 C 181.199219 115.988281 180.203125 113.921875 178.8125 112.824219 C 177.632812 111.898438 176.191406 111.691406 175.085938 112.273438 C 174.242188 112.71875 173.03125 113.390625 171.53125 114.238281 C 162.816406 104.242188 148.324219 105.984375 137.171875 112.949219 C 136.6875 113.25 136.207031 113.566406 135.734375 113.886719 L 107.953125 79.4375 C 106.125 77.113281 103.265625 77.550781 101.292969 79.195312 C 99.3125 80.839844 98.433594 83.585938 100.152344 85.539062 L 128.105469 120.65625 C 126.484375 122.535156 125.117188 124.527344 124.0625 126.582031 C 121.347656 131.882812 120.738281 137.578125 123.332031 142.792969 C 122.085938 143.554688 121.117188 144.152344 120.496094 144.546875 C 119.746094 145.019531 119.367188 145.789062 119.386719 146.753906 C 119.40625 147.679688 119.855469 148.847656 120.5625 149.871094 C 121.257812 150.878906 122.1875 151.730469 123.066406 152.117188 C 123.941406 152.503906 124.796875 152.480469 125.519531 152.054688 C 125.941406 151.804688 126.371094 151.550781 126.816406 151.292969 C 130.769531 156.695312 152.339844 186.085938 166.5625 203.191406 Z M 144.777344 141.113281 C 141.515625 142.9375 138.328125 144.722656 135.332031 146.414062 L 128.980469 150.066406 C 129.652344 150.984375 130.730469 152.453125 132.117188 154.339844 C 136.015625 148.90625 141.441406 146.832031 148.914062 149.253906 C 149.148438 148.542969 149.394531 147.871094 149.652344 147.238281 Z M 175.660156 120.453125 L 151.300781 134.453125 C 151.199219 134.480469 151.101562 134.523438 151.003906 134.578125 L 144.425781 138.40625 L 134.027344 144.378906 C 130.441406 146.40625 127.136719 148.296875 124.320312 149.957031 C 124.292969 149.953125 124.226562 149.941406 124.1875 149.925781 C 124.089844 149.894531 123.992188 149.84375 123.890625 149.78125 C 123.421875 149.496094 122.96875 149.007812 122.597656 148.476562 C 122.234375 147.949219 121.949219 147.375 121.863281 146.863281 C 121.847656 146.761719 121.851562 146.613281 121.855469 146.542969 C 128.238281 142.515625 168.328125 118.570312 176.207031 114.410156 C 176.375 114.324219 176.574219 114.375 176.765625 114.449219 C 177.128906 114.589844 177.46875 114.871094 177.738281 115.234375 C 178.675781 116.492188 178.542969 118.605469 175.660156 120.453125 Z M 129.640625 122.585938 C 128.292969 124.195312 127.148438 125.894531 126.25 127.644531 C 123.933594 132.171875 123.316406 137.035156 125.453125 141.5 C 128.828125 139.453125 133.417969 136.691406 138.46875 133.675781 Z M 135.253906 117.222656 C 133.84375 118.308594 132.523438 119.484375 131.316406 120.726562 L 140.390625 132.125 C 140.390625 132.125 145.089844 129.421875 145.089844 129.421875 Z M 169.339844 115.488281 C 161.398438 106.832031 148.4375 108.757812 138.457031 114.996094 C 138.050781 115.246094 137.652344 115.507812 137.257812 115.773438 L 147.402344 128.351562 C 155.53125 123.527344 163.734375 118.703125 169.339844 115.488281 Z M 133.734375 115.339844 L 106.019531 80.96875 C 106.015625 80.964844 106.011719 80.960938 106.007812 80.957031 C 105.140625 79.855469 103.785156 80.261719 102.851562 81.039062 C 101.929688 81.808594 101.214844 83.027344 102.027344 83.933594 C 102.042969 83.949219 102.058594 83.96875 102.074219 83.988281 L 129.800781 118.820312 C 131.015625 117.59375 132.335938 116.425781 133.734375 115.339844 Z M 100.152344 85.539062 Z M 100.152344 85.539062 " fill-opacity="1" fill-rule="evenodd"/></g></g></g><g clip-path="url(#4e461da58c)"><g clip-path="url(#236d758ec9)"><g clip-path="url(#48f43cd59f)"><path fill="#db3b3b" d="M 191.863281 145.242188 C 191.992188 144.929688 192.253906 144.6875 192.582031 144.578125 C 192.910156 144.464844 193.269531 144.5 193.578125 144.667969 L 243.3125 171.785156 C 243.617188 171.953125 243.84375 172.242188 243.925781 172.578125 C 244.011719 172.914062 243.945312 173.265625 243.753906 173.546875 C 243.753906 173.546875 210.152344 221.941406 197.175781 236.03125 C 195.964844 237.34375 194.222656 238.113281 192.121094 238.367188 C 189.28125 238.710938 185.75 238.109375 182.171875 236.8125 C 176.914062 234.90625 171.5625 231.515625 168.222656 227.671875 C 165.839844 224.929688 164.484375 221.9375 164.695312 219.070312 C 165.5 208.28125 191.863281 145.242188 191.863281 145.242188 Z M 193.621094 147.441406 C 189.953125 156.238281 167.875 209.5 167.148438 219.292969 C 166.976562 221.582031 168.175781 223.925781 170.078125 226.113281 C 173.160156 229.664062 178.121094 232.773438 182.976562 234.535156 C 186.140625 235.679688 189.261719 236.261719 191.773438 235.957031 C 193.246094 235.777344 194.496094 235.296875 195.339844 234.378906 C 207.109375 221.601562 235.886719 180.511719 240.949219 173.246094 C 240.949219 173.246094 193.621094 147.441406 193.621094 147.441406 Z M 193.621094 147.441406 " fill-opacity="1" fill-rule="evenodd"/></g></g></g><g clip-path="url(#1b0aad0d95)"><g clip-path="url(#e294788955)"><g clip-path="url(#940a1d6ef0)"><path fill="#db3b3b" d="M 268.300781 108.09375 C 267.339844 109.363281 230.480469 157.875 230.480469 157.875 C 230.117188 158.351562 229.453125 158.488281 228.914062 158.195312 L 221.953125 154.398438 C 221.636719 154.226562 221.40625 153.925781 221.328125 153.578125 C 221.25 153.230469 221.328125 152.871094 221.542969 152.589844 C 221.542969 152.589844 259.914062 102.75 260.359375 102.167969 C 262.140625 99.804688 265.003906 100.179688 267.015625 101.777344 C 269.03125 103.378906 269.972656 106.105469 268.300781 108.09375 Z M 266.34375 106.585938 C 266.355469 106.570312 266.371094 106.550781 266.386719 106.53125 C 267.179688 105.609375 266.4375 104.40625 265.496094 103.65625 C 264.546875 102.902344 263.179688 102.523438 262.339844 103.644531 C 262.335938 103.648438 262.335938 103.652344 262.332031 103.65625 L 224.371094 152.96875 C 224.371094 152.96875 229.132812 155.5625 229.132812 155.5625 C 229.132812 155.5625 266.34375 106.585938 266.34375 106.585938 Z M 266.34375 106.585938 " fill-opacity="1" fill-rule="evenodd"/></g></g></g><g clip-path="url(#da3255c2ca)"><g clip-path="url(#be59ea3791)"><g clip-path="url(#25429d0885)"><path fill="#db3b3b" d="M 213.316406 163.363281 L 187.53125 196.855469 C 187.261719 197.207031 187.210938 197.679688 187.398438 198.089844 C 188.160156 199.738281 189.203125 200.988281 190.558594 201.769531 C 191.910156 202.550781 193.589844 202.886719 195.671875 202.605469 C 195.988281 202.5625 196.277344 202.394531 196.46875 202.140625 L 220.21875 170.882812 C 220.492188 171.507812 220.753906 172.175781 221 172.878906 C 228.890625 170.125 234.582031 172.511719 238.664062 178.664062 L 195.976562 235.433594 C 186.007812 238.773438 166.359375 229.625 166.261719 219.226562 L 174.667969 191.667969 L 191.171875 151.808594 C 197.625 153.605469 201.746094 156.320312 203.648438 164.183594 C 207.308594 162.667969 210.550781 162.339844 213.316406 163.363281 Z M 195.71875 232.117188 C 193.515625 232.144531 188.753906 230.894531 186.234375 229.847656 C 179.925781 227.222656 173.113281 221.394531 168.824219 216.097656 C 168.71875 215.964844 168.738281 215.773438 168.867188 215.671875 C 169 215.566406 169.195312 215.589844 169.300781 215.722656 C 173.527344 220.945312 180.242188 226.703125 186.460938 229.289062 C 188.917969 230.308594 193.550781 231.539062 195.699219 231.511719 C 195.867188 231.507812 196.007812 231.640625 196.015625 231.808594 C 196.019531 231.976562 195.886719 232.113281 195.71875 232.117188 Z M 196.859375 229.902344 C 185.449219 227.789062 176.941406 221.683594 170.644531 214.011719 C 170.535156 213.878906 170.554688 213.6875 170.6875 213.582031 C 170.816406 213.480469 171.011719 213.503906 171.117188 213.632812 C 177.324219 221.199219 185.710938 227.222656 196.960938 229.304688 C 197.128906 229.335938 197.242188 229.496094 197.214844 229.660156 C 197.1875 229.824219 197.027344 229.933594 196.859375 229.902344 Z M 195.765625 226.886719 C 193.542969 226.867188 189.992188 225.371094 186.328125 223.265625 C 180.875 220.132812 175.15625 215.65625 173.171875 212.847656 C 173.074219 212.710938 173.105469 212.519531 173.246094 212.425781 C 173.382812 212.332031 173.578125 212.367188 173.671875 212.507812 C 175.625 215.269531 181.265625 219.65625 186.628906 222.742188 C 190.179688 224.78125 193.605469 226.261719 195.757812 226.28125 C 195.929688 226.28125 196.070312 226.417969 196.070312 226.585938 C 196.074219 226.753906 195.9375 226.886719 195.765625 226.886719 Z M 231.15625 184.605469 C 230.777344 185.714844 228.308594 189.460938 224.863281 194.320312 C 216.875 205.589844 203.652344 222.886719 199.503906 226.996094 C 199.382812 227.113281 199.1875 227.109375 199.066406 226.992188 C 198.945312 226.871094 198.945312 226.679688 199.0625 226.5625 C 203.203125 222.460938 216.386719 205.207031 224.355469 193.964844 C 227.75 189.179688 230.199219 185.492188 230.574219 184.398438 C 230.628906 184.242188 230.804688 184.160156 230.964844 184.214844 C 231.125 184.273438 231.210938 184.445312 231.15625 184.605469 Z M 215.523438 164.546875 L 189.957031 197.753906 C 190.433594 198.585938 191.019531 199.246094 191.769531 199.679688 C 192.589844 200.15625 193.59375 200.347656 194.804688 200.25 L 218.96875 168.441406 C 217.953125 166.757812 216.804688 165.46875 215.523438 164.546875 Z M 215.523438 164.546875 " fill-opacity="1" fill-rule="evenodd"/></g></g></g><g clip-path="url(#9825733902)"><g clip-path="url(#2f5641c1e2)"><g clip-path="url(#905d9a08ec)"><path fill="#db3b3b" d="M 220.15625 170.964844 L 225.648438 163.734375 C 225.863281 163.453125 225.9375 163.09375 225.859375 162.75 C 225.78125 162.40625 225.558594 162.109375 225.242188 161.933594 L 218.578125 158.253906 C 218.042969 157.957031 217.375 158.089844 217.011719 158.5625 L 213.175781 163.542969 C 214.007812 163.6875 214.828125 164.074219 215.523438 164.546875 L 218.34375 160.882812 L 222.828125 163.359375 L 218.949219 168.464844 C 219.417969 169.273438 219.8125 170.117188 220.15625 170.964844 Z M 220.15625 170.964844 " fill-opacity="1" fill-rule="evenodd"/></g></g></g><g clip-path="url(#ac1ddd088e)"><g clip-path="url(#0da8ed601f)"><g clip-path="url(#19b0302300)"><path fill="#db3b3b" d="M 249.304688 167.539062 C 250.066406 167.996094 250.460938 168.761719 250.464844 169.722656 C 250.46875 170.648438 250.042969 171.828125 249.363281 172.867188 C 248.691406 173.890625 247.777344 174.761719 246.910156 175.167969 C 246.042969 175.570312 245.1875 175.570312 244.453125 175.160156 C 230.683594 167.441406 205.285156 154.597656 192.371094 146.757812 C 190.230469 145.457031 189.148438 143.980469 188.703125 142.609375 C 187.96875 140.34375 188.914062 138.25 190.28125 137.125 C 191.4375 136.171875 192.875 135.933594 193.996094 136.488281 C 202.019531 140.5 243.023438 163.757812 249.304688 167.539062 Z M 245.605469 173.035156 C 245.632812 173.03125 245.699219 173.019531 245.738281 173.003906 C 245.835938 172.964844 245.933594 172.914062 246.03125 172.851562 C 246.492188 172.554688 246.9375 172.058594 247.292969 171.515625 C 247.644531 170.980469 247.914062 170.398438 247.988281 169.886719 C 248.003906 169.785156 247.996094 169.636719 247.992188 169.570312 C 241.519531 165.679688 200.890625 142.636719 192.921875 138.652344 C 192.75 138.570312 192.554688 138.625 192.363281 138.703125 C 192.007812 138.851562 191.671875 139.140625 191.410156 139.507812 C 190.5 140.789062 190.683594 142.910156 193.628906 144.695312 C 206.511719 152.519531 231.84375 165.324219 245.605469 173.035156 Z M 245.605469 173.035156 " fill-opacity="1" fill-rule="evenodd"/></g></g></g><g clip-path="url(#501a5c2c4f)"><g clip-path="url(#02cf6daba3)"><g clip-path="url(#98b9f992bd)"><path fill="#db3b3b" d="M 244.039062 165.113281 C 246.367188 160.460938 245.679688 155.414062 243.167969 150.773438 C 240.558594 145.953125 236.003906 141.558594 230.675781 138.394531 C 220.15625 132.148438 206.527344 130.621094 198.925781 140.667969 C 198.523438 141.199219 197.753906 141.300781 197.207031 140.890625 C 196.660156 140.484375 196.542969 139.722656 196.945312 139.1875 C 205.324219 128.117188 220.316406 129.433594 231.914062 136.320312 C 237.644531 139.726562 242.523438 144.472656 245.328125 149.660156 C 248.230469 155.023438 248.9375 160.851562 246.246094 166.222656 C 245.949219 166.820312 245.210938 167.054688 244.601562 166.75 C 243.992188 166.441406 243.742188 165.710938 244.039062 165.113281 Z M 244.039062 165.113281 " fill-opacity="1" fill-rule="evenodd"/></g></g></g><g clip-path="url(#5d76d5ef62)"><g clip-path="url(#9f3cafbf25)"><g clip-path="url(#c96064f793)"><path fill="#db3b3b" d="M 184.605469 128.015625 C 184.605469 128.015625 184.511719 120.222656 184.214844 117.699219 C 183.25 109.484375 178.800781 103.773438 171.066406 100.78125 C 166.058594 98.84375 155.78125 95.820312 158.488281 88.3125 C 159.078125 86.6875 160.148438 85.390625 161.492188 84.324219 C 168.230469 78.980469 176.851562 82.324219 181.410156 88.769531 C 187.445312 97.3125 188.476562 106.847656 187.390625 116.933594 C 186.992188 120.671875 186.414062 124.660156 184.605469 128.015625 Z M 184.605469 128.015625 " fill-opacity="1" fill-rule="evenodd"/></g></g></g><g clip-path="url(#50152f4862)"><g clip-path="url(#3748f8ae8b)"><g clip-path="url(#5002dd98b6)"><path fill="#db3b3b" d="M 186.726562 133.308594 C 186.726562 133.308594 188.605469 123.628906 189.652344 120.128906 C 190.25 118.132812 190.621094 116.070312 191.074219 114.035156 C 191.9375 110.179688 192.558594 106.230469 192.148438 102.269531 C 191.746094 98.367188 190.503906 94.632812 189.773438 90.792969 C 189.265625 88.101562 189.003906 85.3125 189.078125 82.570312 C 189.160156 79.46875 189.664062 76.070312 191.921875 73.746094 C 195.019531 70.554688 200.191406 71.351562 202.933594 74.570312 C 205.554688 77.644531 204.851562 85.777344 204.523438 89.75 C 203.859375 97.71875 187.925781 131.753906 186.726562 133.308594 Z M 186.726562 133.308594 " fill-opacity="1" fill-rule="evenodd"/></g></g></g><g clip-path="url(#6242d4249c)"><g clip-path="url(#d8bd76e326)"><g clip-path="url(#bdd4543a54)"><path fill="#db3b3b" d="M 192.367188 131.835938 C 192.566406 125.234375 196.726562 118.984375 201.511719 114.300781 C 203.808594 112.054688 206.453125 110.179688 209.558594 109.097656 C 213.699219 107.65625 219.683594 108.453125 220.949219 112.957031 C 221.140625 113.632812 221.226562 114.371094 221.199219 115.078125 C 221.167969 115.894531 221.003906 116.75 220.628906 117.5 C 218.789062 121.132812 214.253906 122.535156 210.503906 123.511719 C 207.941406 124.183594 205.277344 124.550781 202.75 125.351562 C 198.476562 126.710938 194.539062 129.191406 192.523438 133.117188 Z M 192.367188 131.835938 " fill-opacity="1" fill-rule="evenodd"/></g></g></g><g fill="#db3b3b" fill-opacity="1"><g transform="translate(122.886651, 246.66211)"><g><path d="M 5.480469 6.988281 C 6.421875 7.746094 7.234375 7.28125 7.984375 6.539062 C 10.308594 4.25 12.160156 2.308594 14.714844 0.328125 C 14.910156 0.179688 15.167969 0.191406 15.316406 0.386719 C 15.914062 1.15625 16.777344 2.042969 17.652344 2.367188 C 18.738281 2.777344 20.003906 1.699219 20.476562 0.804688 C 21.039062 -0.289062 19.394531 -1.96875 16.671875 -4.945312 C 15.6875 -5.996094 13.695312 -8.292969 12.308594 -9.300781 C 11.570312 -9.835938 10.996094 -9.445312 10.371094 -9.015625 C 9.722656 -8.558594 8.902344 -7.863281 8.898438 -7.203125 C 8.847656 -6.386719 9.984375 -5.117188 10.941406 -4.070312 C 11.132812 -3.863281 11.164062 -3.585938 10.9375 -3.410156 C 9.644531 -2.394531 8.835938 -1.625 7.609375 -0.449219 C 6.410156 0.675781 4.367188 2.375 3.445312 3.769531 C 2.832031 4.6875 4.304688 6.03125 5.480469 6.988281 Z M 5.480469 6.988281 "/></g></g></g><g fill="#db3b3b" fill-opacity="1"><g transform="translate(133.752259, 258.025416)"><g><path d="M 1.304688 2.660156 C 2.203125 3.710938 3.542969 4.28125 4.515625 3.792969 C 5.589844 3.28125 6.652344 1.691406 12.367188 -5.730469 C 12.722656 -6.195312 13.160156 -6.601562 13.402344 -7.058594 C 13.761719 -7.757812 13.664062 -8.4375 13.308594 -8.964844 C 12.714844 -9.839844 11.277344 -10.960938 10.316406 -10.9375 C 9.652344 -10.925781 8.929688 -9.976562 7.917969 -8.707031 C 6.882812 -7.40625 5.933594 -5.984375 4.910156 -4.703125 C 2.238281 -1.523438 1.113281 -0.113281 0.695312 0.621094 C 0.328125 1.261719 0.621094 1.867188 1.304688 2.660156 Z M 1.304688 2.660156 "/></g></g></g><g fill="#db3b3b" fill-opacity="1"><g transform="translate(139.569018, 262.977121)"><g><path d="M 6.742188 5.636719 C 8.035156 6.3125 9.078125 7.09375 10.171875 6.746094 C 10.527344 6.628906 10.859375 6.285156 11.164062 5.832031 C 11.867188 4.765625 12.160156 3.972656 11.449219 3.390625 C 10.699219 2.789062 9.507812 2.601562 8.6875 2.195312 C 8.058594 1.902344 6.679688 1.320312 6.625 0.714844 C 6.597656 0.292969 7.03125 -0.53125 7.464844 -1.121094 C 7.855469 -1.644531 8.035156 -1.699219 8.472656 -1.40625 C 9.144531 -0.949219 10.121094 -0.253906 10.738281 -0.375 C 11.410156 -0.652344 11.726562 -1.550781 12.121094 -2.425781 C 12.511719 -3.804688 9.832031 -4.046875 10.082031 -4.914062 C 10.164062 -5.246094 10.65625 -5.894531 11.140625 -6.453125 C 11.601562 -6.929688 11.71875 -6.8125 12.539062 -6.285156 C 13.34375 -5.742188 14.113281 -5.054688 14.933594 -4.574219 C 15.984375 -4 16.550781 -3.988281 17.421875 -5.210938 C 17.832031 -5.769531 18.039062 -6.140625 18.003906 -6.472656 C 17.839844 -8.261719 12.746094 -10.769531 11.277344 -11.550781 C 9.640625 -12.414062 8.789062 -12.03125 7.671875 -10.675781 C 6.402344 -9.148438 5.363281 -7.457031 4.324219 -5.761719 C 1.753906 -1.65625 -0.648438 0.980469 3.425781 3.484375 C 3.992188 3.878906 5.296875 4.890625 6.742188 5.636719 Z M 6.742188 5.636719 "/></g></g></g><g fill="#db3b3b" fill-opacity="1"><g transform="translate(151.782397, 270.453674)"><g><path d="M 12.464844 5.25 C 13.519531 4.976562 14.128906 3.019531 14.578125 1.953125 C 15.621094 -0.574219 16.625 -3.121094 17.582031 -5.660156 C 18.265625 -7.460938 19.199219 -9.015625 17.289062 -10.039062 C 15.617188 -10.886719 14.675781 -11.265625 13.957031 -10.453125 C 12.972656 -9.394531 12.332031 -7.015625 11.859375 -5.59375 C 11.832031 -5.515625 11.710938 -5.539062 11.695312 -5.609375 C 11.484375 -7.464844 10.695312 -11.683594 10.109375 -12.363281 C 9.519531 -13.039062 8.554688 -13.296875 7.53125 -13.511719 C 6.144531 -13.796875 5.710938 -11.964844 4.582031 -9.378906 C 3.769531 -7.628906 3.015625 -5.859375 2.316406 -4.0625 C 1.757812 -2.648438 0.226562 -0.195312 1.308594 0.949219 C 2.148438 1.828125 3.898438 2.578125 5 2.363281 C 5.910156 2.1875 6.109375 0.855469 6.417969 0.0429688 C 6.890625 -1.210938 7.355469 -2.441406 7.886719 -3.671875 C 7.914062 -3.746094 8.015625 -3.730469 8.03125 -3.660156 C 8.269531 -1.359375 8.242188 1.402344 9.171875 3.53125 C 9.652344 4.554688 11.3125 5.550781 12.464844 5.25 Z M 12.464844 5.25 "/></g></g></g><g fill="#db3b3b" fill-opacity="1"><g transform="translate(166.721726, 275.672228)"><g><path d="M 4.269531 -8.652344 C 4.960938 -8.488281 5.410156 -8.800781 5.800781 -9.9375 C 5.636719 -9.496094 6.589844 -12.207031 6.621094 -12.34375 C 6.75 -12.898438 6.933594 -13.582031 6.757812 -13.980469 C 6.574219 -14.355469 6.082031 -14.636719 5.605469 -14.75 C 4.660156 -14.972656 4.039062 -14.453125 3.824219 -13.546875 C 3.542969 -12.363281 3.3125 -11.292969 3.164062 -10.394531 C 2.957031 -9.253906 3.460938 -8.84375 4.269531 -8.652344 Z M 4.269531 -8.652344 "/></g></g></g><g fill="#db3b3b" fill-opacity="1"><g transform="translate(171.498966, 277.078659)"><g><path d="M 8.089844 2.460938 C 10.757812 2.484375 13.445312 1.183594 13.886719 -1.96875 C 14.285156 -4.699219 11.863281 -6.46875 9.324219 -7.84375 C 8.675781 -8.257812 6.660156 -9.046875 7.300781 -10.078125 C 8.875 -12.191406 10.699219 -7.777344 13.304688 -8.289062 C 14.605469 -8.4375 15.269531 -9.710938 14.78125 -10.84375 C 13.90625 -13.320312 11.445312 -14.503906 8.632812 -14.867188 C 5.375 -15.113281 2.710938 -13.628906 2.34375 -10.609375 C 2.007812 -7.488281 4.230469 -6.71875 6.492188 -5.230469 C 7.195312 -4.75 9.125 -3.929688 8.261719 -2.71875 C 7.203125 -1.589844 6.117188 -2.664062 5.121094 -3.464844 C 4.34375 -4.363281 3.410156 -4.992188 1.925781 -4.277344 C 0.699219 -3.675781 0.679688 -1.964844 1.238281 -0.90625 C 2.488281 1.328125 5.445312 2.441406 8.089844 2.460938 Z M 8.089844 2.460938 "/></g></g></g><g fill="#db3b3b" fill-opacity="1"><g transform="translate(186.719081, 278.415231)"><g/></g></g><g fill="#db3b3b" fill-opacity="1"><g transform="translate(195.875425, 278.103271)"><g><path d="M 2.886719 0.425781 C 3.808594 0.519531 5.007812 0.414062 5.496094 -0.273438 C 6.214844 -1.277344 4.984375 -4.507812 4.847656 -5.886719 C 4.789062 -6.535156 4.878906 -6.695312 5.402344 -6.773438 C 6.207031 -6.882812 7.394531 -7.027344 7.773438 -7.53125 C 8.085938 -8.1875 7.710938 -9.066406 7.414062 -9.980469 C 6.78125 -11.261719 4.675781 -9.648438 4.234375 -10.449219 C 4.074219 -10.75 4.003906 -11.5625 3.988281 -12.300781 C 4.007812 -12.964844 4.171875 -12.957031 5.132812 -13.117188 C 6.097656 -13.257812 7.125 -13.265625 8.058594 -13.460938 C 9.222656 -13.742188 9.605469 -14.105469 9.46875 -15.605469 C 9.398438 -16.292969 9.300781 -16.707031 9.050781 -16.929688 C 7.714844 -18.121094 2.273438 -16.578125 0.660156 -16.167969 C -1.132812 -15.707031 -1.503906 -14.851562 -1.421875 -13.09375 C -1.335938 -11.109375 -0.96875 -9.160156 -0.597656 -7.207031 C 0.136719 -3.097656 -0.113281 0.164062 2.886719 0.425781 Z M 2.886719 0.425781 "/></g></g></g><g fill="#db3b3b" fill-opacity="1"><g transform="translate(209.59414, 275.511453)"><g><path d="M 2.378906 0.242188 C 4.390625 0.0429688 5.804688 -0.90625 5.203125 -2.996094 C 4.601562 -4.523438 5.050781 -4.941406 6.394531 -5.511719 C 7.875 -6.175781 8.554688 -5.878906 9.046875 -4.242188 C 9.558594 -2.660156 11.523438 -3.082031 12.488281 -4.285156 C 13.238281 -5.320312 13.050781 -6.292969 12.59375 -7.460938 C 12.03125 -8.894531 11.007812 -10.734375 10.3125 -12.117188 C 8.867188 -14.96875 6.359375 -18.535156 2.679688 -17.59375 C -1 -16.652344 -1.949219 -12.96875 -1.726562 -9.617188 C -1.597656 -7.578125 -1.125 -5.589844 -0.566406 -3.609375 C -0.125 -2.039062 0.238281 0.386719 2.378906 0.242188 Z M 3.386719 -8.574219 C 3.125 -9.910156 2.578125 -12.414062 3.933594 -12.949219 C 5.257812 -13.464844 6.222656 -11.058594 6.828125 -9.902344 C 6.914062 -9.738281 6.832031 -9.554688 6.664062 -9.488281 L 6 -9.230469 C 5.285156 -8.949219 4.554688 -8.707031 3.847656 -8.34375 C 3.648438 -8.242188 3.429688 -8.351562 3.386719 -8.574219 Z M 3.386719 -8.574219 "/></g></g></g><g fill="#db3b3b" fill-opacity="1"><g transform="translate(224.636429, 269.435526)"><g><path d="M 9.386719 -4.425781 C 10.527344 -5.011719 11.714844 -7.785156 9.921875 -8.371094 C 8.539062 -8.882812 6.890625 -9.46875 5.414062 -9.824219 C 6.390625 -11.121094 7.015625 -12.625 6.433594 -14.296875 C 4.820312 -18.890625 0.519531 -19.417969 -5.078125 -15.195312 C -6.328125 -14.253906 -7.054688 -13.695312 -6.707031 -12.210938 C -6.453125 -11.097656 -5.625 -10.0625 -3.066406 -6.046875 C 0.453125 -0.53125 0.664062 0.851562 2.800781 -0.320312 C 3.988281 -0.980469 4.621094 -1.648438 4.460938 -2.726562 C 4.328125 -3.652344 3.78125 -4.433594 2.839844 -5.875 C 4.96875 -4.949219 8.511719 -3.988281 9.386719 -4.425781 Z M -0.292969 -10.558594 C -0.695312 -11.1875 -1.152344 -11.789062 -1.457031 -12.457031 C -1.550781 -12.640625 -1.46875 -12.8125 -1.296875 -12.921875 C -0.410156 -13.488281 1.765625 -14.753906 2.386719 -14.117188 C 3.664062 -12.792969 2.46875 -11.765625 0.28125 -10.296875 C 0.09375 -10.179688 -0.0976562 -10.25 -0.292969 -10.558594 Z M -0.292969 -10.558594 "/></g></g></g><g fill="#db3b3b" fill-opacity="1"><g transform="translate(237.678269, 261.336322)"><g><path d="M 13.152344 -11.453125 C 14.109375 -13.070312 12.855469 -14.074219 11.695312 -15.4375 C 9.386719 -18.09375 6.691406 -21.21875 3.242188 -22.101562 C -0.363281 -22.9375 -2.445312 -19.277344 -1.582031 -16.046875 C -3.148438 -16.476562 -4.96875 -16.585938 -6.289062 -15.328125 C -7.695312 -13.980469 -8.117188 -11.867188 -7.640625 -10.125 C -6.867188 -7.324219 -4.683594 -5.269531 -2.628906 -3.65625 C -1.503906 -2.75 -0.128906 -1.574219 1.335938 -1.074219 C 2.789062 -0.585938 4.082031 -1.761719 4.8125 -3 C 5.878906 -5.105469 2.121094 -7 0.460938 -8.257812 C -0.390625 -8.894531 -2.179688 -10.109375 -2.535156 -11.195312 C -2.730469 -12.066406 -2.054688 -11.828125 -1.363281 -11.550781 C 0.21875 -10.90625 3.804688 -6.402344 5.871094 -10.132812 C 6.535156 -11.328125 4.886719 -12.859375 4.117188 -13.785156 C 3.796875 -14.152344 1.898438 -16.355469 3.261719 -16.125 C 4.136719 -15.976562 6.109375 -13.789062 6.816406 -12.953125 C 7.671875 -11.972656 8.679688 -10.246094 9.960938 -9.757812 C 11.339844 -9.230469 12.53125 -10.445312 13.152344 -11.453125 Z M 13.152344 -11.453125 "/></g></g></g></svg>